<?xml version="1.0" standalone="no"?>
<!DOCTYPE svg PUBLIC "-//W3C//DTD SVG 20010904//EN"
 "http://www.w3.org/TR/2001/REC-SVG-20010904/DTD/svg10.dtd">
<svg version="1.0" xmlns="http://www.w3.org/2000/svg"
 width="225.000000pt" height="225.000000pt" viewBox="0 0 225.000000 225.000000"
 preserveAspectRatio="xMidYMid meet">

<g transform="translate(0.000000,225.000000) scale(0.100000,-0.100000)"
fill="#000000" stroke="none">
<path d="M1035 2064 c-91 -14 -184 -37 -243 -60 -272 -107 -485 -339 -567
-619 -38 -128 -45 -321 -17 -455 60 -291 241 -525 506 -654 253 -124 522 -135
778 -31 301 122 517 392 573 714 60 344 -80 704 -354 913 -89 67 -247 143
-351 168 -83 20 -264 33 -325 24z m59 -54 c29 -10 35 -30 10 -30 -8 0 -12 5
-9 10 3 6 4 10 1 10 -3 0 -8 -5 -11 -10 -4 -6 9 -17 27 -26 30 -13 30 -15 6
-11 -16 2 -25 0 -23 -7 2 -6 6 -26 9 -44 5 -30 4 -32 -15 -21 -16 8 -25 7 -39
-6 -18 -16 -18 -15 -13 24 5 33 3 41 -11 41 -21 0 -21 16 2 29 9 6 11 11 5 11
-7 0 -13 7 -13 16 0 13 3 14 15 4 12 -10 16 -9 21 4 7 19 6 19 38 6z m176 -30
c38 0 52 -12 30 -25 -5 -3 -9 -21 -9 -38 1 -18 3 -24 6 -14 7 28 23 19 23 -14
0 -30 -1 -31 -22 -17 -13 9 -24 25 -26 37 -4 26 -22 18 -22 -10 0 -10 -4 -19
-9 -19 -4 0 -6 11 -3 25 2 15 0 25 -7 25 -6 0 -10 -3 -10 -7 4 -23 -3 -33 -22
-33 -19 0 -21 4 -16 35 4 21 2 35 -5 35 -5 0 0 11 13 24 20 20 25 22 32 10 5
-8 24 -14 47 -14z m-426 -27 c4 -4 15 -8 23 -8 9 0 18 -6 21 -14 3 -10 0 -12
-12 -8 -10 4 -26 2 -37 -3 -13 -7 -19 -7 -19 0 0 5 6 10 13 11 10 0 10 2 0 6
-14 5 -18 23 -5 23 5 0 12 -3 16 -7z m586 -2 c0 -5 -5 -11 -12 -13 -8 -3 -4
-12 10 -26 12 -12 22 -18 22 -14 0 4 -5 13 -11 19 -6 6 -8 17 -3 24 5 9 9 8
15 -7 7 -17 8 -17 8 -1 1 9 6 17 12 17 11 0 9 -16 -6 -52 -5 -13 -2 -18 9 -18
9 0 16 -5 16 -11 0 -6 -8 -8 -19 -4 -14 4 -21 -1 -29 -25 -14 -39 -26 -39 -17
0 4 18 2 30 -3 30 -6 0 -17 3 -26 6 -10 4 -16 1 -16 -9 0 -9 -5 -19 -11 -23
-8 -5 -10 1 -6 19 6 22 4 25 -16 20 -19 -4 -20 -3 -5 7 9 6 15 17 12 25 -4 11
1 15 17 16 14 0 18 3 10 6 -11 5 -11 7 0 14 18 12 49 11 49 0z m-626 -36 c-6
-14 10 -15 46 -1 18 7 51 -13 33 -20 -7 -3 -9 -12 -6 -20 7 -19 21 -18 25 3 3
15 4 15 16 0 11 -13 10 -17 -8 -27 -15 -8 -25 -9 -32 -2 -8 8 -16 4 -28 -11
l-18 -22 3 33 c1 18 11 40 21 48 18 14 17 14 -6 3 -44 -22 -54 -37 -42 -65 7
-13 8 -24 3 -24 -12 0 -44 88 -37 105 3 8 12 15 20 15 9 0 13 -6 10 -15z m790
-37 c-4 -7 -3 -8 4 -4 7 4 22 -3 34 -14 20 -19 21 -22 7 -30 -11 -7 -15 -18
-11 -37 4 -23 2 -26 -9 -15 -7 6 -18 12 -23 12 -6 0 -4 -4 4 -10 8 -5 11 -12
7 -16 -3 -4 -14 -1 -22 6 -13 11 -18 10 -30 -6 -13 -16 -16 -17 -25 -4 -15 22
-12 30 8 24 11 -4 9 1 -8 16 -22 19 -23 21 -4 15 15 -4 21 -1 21 11 0 10 -7
14 -19 11 -10 -3 -18 -1 -18 4 0 5 9 9 19 9 11 0 23 9 26 20 4 11 15 20 26 20
13 0 18 -4 13 -12z m-914 -8 c9 5 22 5 30 0 12 -7 10 -14 -10 -35 -16 -17 -19
-24 -8 -20 11 4 18 0 23 -15 8 -24 31 -21 29 4 -2 20 10 21 25 2 10 -12 7 -18
-14 -32 -24 -16 -27 -16 -47 2 -21 19 -21 19 -15 -7 5 -18 2 -31 -9 -40 -13
-11 -14 -9 -9 14 6 22 4 26 -9 21 -19 -7 -21 7 -3 25 10 11 10 13 0 7 -8 -5
-13 -1 -14 11 0 13 -3 12 -11 -7 -6 -15 -12 -20 -15 -12 -3 7 2 24 11 37 10
15 12 26 6 30 -6 4 -7 11 -4 17 4 6 10 6 17 -1 6 -6 16 -7 27 -1z m560 -41
c159 -25 276 -86 395 -204 91 -91 144 -174 182 -290 24 -71 27 -96 27 -215 0
-126 -2 -141 -31 -223 -43 -122 -85 -189 -178 -282 -156 -157 -368 -231 -583
-205 -174 22 -293 80 -417 205 -147 146 -215 306 -215 505 0 197 67 358 209
501 172 172 385 245 611 208z m-680 -65 c0 -11 6 -14 21 -9 18 6 20 4 15 -13
-5 -14 0 -25 15 -36 13 -9 20 -19 16 -22 -4 -4 -19 3 -33 17 l-26 24 7 -37 c5
-26 4 -38 -4 -38 -6 0 -11 9 -11 20 0 11 -4 20 -8 20 -5 0 -8 -10 -8 -21 1
-13 -7 -25 -21 -30 -20 -7 -23 -5 -23 16 0 14 -4 24 -9 23 -17 -5 -8 17 23 59
33 45 46 53 46 27z m1183 -20 c46 -36 60 -57 35 -51 -8 1 -12 -7 -10 -23 3
-20 2 -22 -11 -12 -11 10 -18 8 -32 -8 -10 -11 -23 -20 -28 -20 -6 0 0 11 13
25 26 28 22 42 -7 27 -12 -7 -25 -7 -34 -1 -12 7 -11 9 3 9 9 0 20 5 24 12 4
6 3 8 -4 5 -16 -10 -44 4 -38 19 3 7 0 15 -7 18 -7 2 -2 5 11 5 12 1 22 7 22
16 0 23 12 19 63 -21z m123 -126 c18 0 21 -6 19 -39 -2 -41 -14 -63 -22 -42
-5 13 -50 8 -67 -7 -16 -16 4 -31 25 -19 19 10 19 9 9 -10 -12 -24 -21 -26
-38 -9 -17 17 -15 45 6 57 14 8 10 10 -20 11 -21 0 -38 5 -38 10 0 6 9 10 21
10 11 0 17 5 14 10 -3 6 -2 10 4 10 5 0 13 -4 16 -10 3 -5 11 -10 18 -10 8 0
8 3 -1 12 -21 21 -15 41 11 33 12 -4 31 -7 43 -7z m-1444 -15 c15 10 21 9 28
-3 6 -10 10 -11 10 -2 0 6 7 12 15 12 13 0 13 -4 -2 -27 -20 -30 -22 -29 32
-7 8 3 15 1 15 -5 0 -6 -13 -14 -29 -17 -27 -6 -29 -9 -25 -48 l4 -41 -11 34
c-10 31 -11 32 -24 15 -13 -18 -14 -18 -15 -1 0 9 -7 17 -15 17 -11 0 -14 7
-9 24 4 16 1 25 -11 30 -9 3 -13 11 -10 17 5 7 11 7 17 1 7 -7 17 -7 30 1z
m-51 -150 c8 -9 13 -24 11 -34 -2 -13 5 -20 22 -25 14 -3 26 -10 26 -15 0 -11
-3 -11 -34 1 -20 7 -26 6 -26 -4 0 -17 -18 -25 -41 -19 -11 3 -14 12 -11 29 3
17 0 24 -12 24 -9 0 -16 6 -16 14 0 9 7 12 19 9 12 -3 20 2 24 16 6 25 20 27
38 4z m1581 -2 c11 -11 9 -13 -9 -8 -15 3 -20 1 -16 -9 3 -8 9 -12 13 -9 4 3
15 -6 24 -20 19 -29 11 -33 -16 -8 -20 18 -25 4 -8 -28 11 -19 -3 -28 -15 -10
-3 6 -20 4 -40 -5 -19 -8 -35 -10 -35 -5 0 5 14 14 30 21 32 13 42 35 13 26
-10 -3 -25 -1 -33 4 -11 7 -7 10 18 10 l32 0 -20 20 c-11 11 -23 19 -27 19
-17 -3 -33 1 -33 9 0 13 108 8 122 -7z m-1592 -491 c0 -5 -5 -10 -11 -10 -7 0
-8 -11 -4 -30 6 -26 3 -31 -20 -40 -32 -12 -35 -12 -35 -2 0 5 10 14 23 20
l22 11 -25 0 c-40 1 -37 38 3 50 43 12 47 13 47 1z m1630 -15 c0 -14 -4 -25
-8 -25 -5 0 -8 -10 -8 -22 1 -26 -27 -36 -49 -18 -15 12 -10 40 7 40 6 0 8 -7
4 -15 -3 -8 0 -15 7 -15 7 0 13 9 14 20 1 11 -4 20 -13 20 -8 0 -14 9 -14 20
0 16 7 20 30 20 25 0 30 -4 30 -25z m-1622 -93 c2 -12 10 -22 19 -22 13 0 14
-2 2 -17 -12 -15 -12 -16 4 -10 31 12 18 -9 -16 -25 -32 -15 -34 -15 -46 4 -7
11 -11 21 -9 22 2 2 12 8 23 15 20 12 20 12 -1 6 -27 -7 -53 20 -36 37 9 9 12
7 13 -7 0 -17 2 -17 10 3 11 28 33 24 37 -6z m1568 12 c23 -6 34 -24 14 -24
-5 0 -7 -6 -4 -14 4 -10 -2 -12 -23 -10 -27 4 -27 4 -5 -7 12 -7 22 -16 22
-21 0 -11 -4 -10 -33 3 -30 14 -25 48 7 50 18 1 17 3 -6 12 -16 6 -28 15 -28
20 0 5 7 6 16 3 9 -3 27 -9 40 -12z m-39 -79 c20 -8 33 -18 30 -21 -7 -8 -77
18 -77 28 0 11 5 10 47 -7z m-1481 -29 c1 -14 -4 -27 -12 -30 -8 -3 -14 -10
-14 -16 0 -7 7 -7 21 1 16 8 23 8 29 -1 4 -6 10 -11 14 -11 13 2 7 -15 -10
-24 -10 -5 -24 -17 -31 -25 -10 -13 -12 -13 -13 -1 0 8 8 23 18 34 17 19 16
20 -7 7 -24 -12 -40 -2 -41 27 0 6 -6 14 -12 17 -9 3 -6 11 11 25 31 28 46 26
47 -3z m1468 4 c16 -6 26 -17 26 -30 0 -21 -26 -38 -38 -25 -4 4 -1 10 6 12 6
3 12 10 12 16 0 8 -4 7 -12 -1 -22 -22 -48 -14 -48 13 0 27 13 31 54 15z m-39
-82 c29 -13 30 -17 11 -44 -14 -19 -15 -19 -35 3 -12 12 -18 29 -15 37 7 19 7
19 39 4z m-1370 -34 c0 -12 -6 -18 -17 -18 -10 1 -15 -2 -12 -7 3 -5 0 -9 -6
-9 -20 0 -24 32 -5 47 24 17 40 12 40 -13z m1332 -8 c15 -13 26 -27 22 -30 -6
-6 -69 35 -69 47 0 14 19 7 47 -17z m-2 -36 c10 -11 13 -20 7 -20 -6 0 -14 5
-17 10 -3 6 -11 10 -17 10 -6 0 -3 -9 7 -20 14 -16 15 -20 4 -20 -8 0 -20 5
-27 12 -9 9 -12 9 -12 0 0 -6 8 -15 17 -21 10 -5 15 -13 10 -17 -4 -4 -15 0
-25 9 -10 10 -23 17 -28 17 -5 0 -3 -4 5 -9 13 -8 13 -12 0 -28 -13 -16 -13
-17 4 -4 15 12 17 11 17 -3 0 -15 -11 -20 -37 -17 -7 1 -10 -4 -7 -12 3 -8 -2
-20 -11 -27 -23 -19 -45 4 -42 46 2 39 4 40 29 17 15 -14 18 -14 13 -2 -6 16
60 97 81 98 6 1 19 -8 29 -19z m-1275 -24 c0 -34 -43 -50 -54 -20 -8 21 11 44
35 44 13 0 19 -7 19 -24z m50 -17 c0 -5 -8 -12 -17 -16 -10 -3 -26 -13 -35
-21 -27 -23 -21 0 8 31 24 26 44 28 44 6z m23 -41 c-11 -13 -23 -30 -27 -38
-4 -8 2 -4 14 10 l22 25 17 -22 c13 -15 22 -18 34 -12 10 6 18 5 22 -1 3 -5 0
-10 -7 -10 -7 0 -2 -9 11 -19 27 -20 25 -54 -3 -59 -24 -5 -37 17 -25 42 8 18
7 17 -7 -2 -16 -21 -18 -22 -35 -6 -14 13 -16 21 -8 35 6 11 6 19 0 19 -5 0
-12 -7 -15 -16 -6 -15 -8 -15 -26 1 -19 17 -19 18 3 46 12 15 28 28 36 28 11
1 9 -5 -6 -21z m1050 -56 c13 -14 14 -21 5 -30 -7 -7 -18 -12 -25 -12 -6 0
-16 -7 -21 -16 -5 -9 -18 -14 -28 -12 -24 4 -31 46 -9 54 21 8 33 -5 15 -16
-8 -5 -11 -13 -6 -17 5 -4 11 -2 13 5 3 6 9 10 14 6 12 -7 7 19 -5 27 -11 9 1
29 18 29 7 0 20 -8 29 -18z m-83 -85 c0 -4 -9 -5 -20 -2 -14 5 -20 2 -20 -9 0
-21 -16 -21 -24 0 -8 21 -8 59 1 67 7 8 63 -41 63 -56z m-783 22 c36 -17 43
-25 38 -43 -6 -21 -6 -21 10 -1 13 16 19 17 34 8 14 -9 21 -9 30 0 8 8 11 8
11 -2 0 -11 3 -11 15 -1 13 11 15 9 11 -11 -3 -13 -5 -32 -5 -41 -1 -10 -6
-18 -12 -18 -7 0 -9 10 -5 26 5 17 3 23 -4 19 -5 -3 -10 -15 -10 -26 0 -10 -5
-19 -11 -19 -7 0 -9 10 -7 25 3 13 1 22 -3 19 -5 -3 -9 -12 -9 -20 0 -18 -10
-18 -36 1 -12 8 -25 11 -29 7 -4 -4 -5 7 -1 23 l7 30 -22 -25 -21 -25 6 33 c4
20 2 31 -4 27 -6 -3 -10 -13 -10 -21 0 -8 -5 -14 -11 -14 -7 0 -9 10 -5 25 7
27 -8 35 -18 10 -3 -8 -10 -15 -15 -15 -7 0 -6 9 1 25 14 30 20 31 75 4z m658
-59 c0 -16 -6 -26 -18 -28 -19 -4 -32 20 -23 44 9 25 41 13 41 -16z m-60 10
c3 -5 1 -10 -4 -10 -6 0 -11 -7 -11 -15 0 -9 6 -12 16 -8 12 4 15 2 12 -8 -7
-20 -42 -17 -46 4 -7 36 17 63 33 37z m-148 -32 c8 20 33 14 42 -10 5 -13 7
-26 4 -30 -7 -13 -41 -9 -46 5 -3 7 -6 5 -6 -5 -2 -35 -19 -17 -23 23 -4 47 2
59 15 27 6 -14 11 -18 14 -10z m246 -1 c-3 -5 -9 -3 -14 4 -4 7 -5 17 -2 22 3
5 9 3 14 -4 4 -7 5 -17 2 -22z m-495 -8 c3 -26 -19 -46 -39 -33 -11 6 -12 48
-2 58 15 14 38 0 41 -25z m154 6 c-3 -16 -1 -18 9 -7 16 15 49 16 49 1 0 -6
-7 -9 -15 -5 -9 3 -15 0 -15 -10 0 -10 6 -14 15 -10 9 3 15 0 15 -9 0 -17
-101 -16 -107 2 -3 7 4 10 19 7 l23 -5 -22 12 c-13 7 -23 21 -23 31 0 15 6 19
28 16 21 -2 26 -8 24 -23z m198 11 c0 -8 3 -21 6 -30 3 -9 2 -16 -3 -16 -5 0
-14 12 -20 28 l-11 27 -1 -35 c-1 -26 -4 -31 -11 -20 -5 8 -10 25 -10 38 0 17
6 22 25 22 15 0 25 -6 25 -14z m-292 -33 c2 -19 -1 -33 -7 -33 -6 0 -12 12
-12 28 -2 23 -2 24 -6 5 -6 -34 -23 -28 -23 8 0 26 3 30 23 27 17 -2 23 -11
25 -35z"/>
<path d="M1267 1963 c-4 -3 -7 -11 -7 -17 0 -6 5 -5 12 2 6 6 9 14 7 17 -3 3
-9 2 -12 -2z"/>
<path d="M1220 1950 c-13 -8 -13 -10 2 -10 9 0 20 5 23 10 8 13 -5 13 -25 0z"/>
<path d="M1407 1899 c7 -7 15 -10 18 -7 3 3 -2 9 -12 12 -14 6 -15 5 -6 -5z"/>
<path d="M1595 1821 c-3 -5 -2 -12 3 -15 5 -3 9 1 9 9 0 17 -3 19 -12 6z"/>
<path d="M680 1849 c0 -5 5 -7 10 -4 6 3 10 8 10 11 0 2 -4 4 -10 4 -5 0 -10
-5 -10 -11z"/>
<path d="M1034 1548 c-48 -84 -98 -171 -111 -194 -29 -51 -29 -64 0 -64 17 0
19 -2 7 -10 -12 -7 -10 -11 10 -20 23 -9 22 -10 -10 -5 -30 4 -32 4 -12 -5 35
-15 74 -2 67 21 -5 14 -1 19 14 19 11 0 23 -4 26 -10 3 -5 11 -10 16 -10 6 0
8 4 5 8 -3 5 1 9 9 9 8 0 13 -3 10 -5 -3 -3 3 -11 13 -18 9 -7 14 -15 11 -19
-4 -3 -14 1 -22 10 -9 8 -18 11 -21 7 -8 -14 39 -32 55 -21 11 7 11 11 -5 22
-17 13 -17 14 -2 20 12 5 15 3 10 -6 -5 -8 -4 -9 4 -2 6 6 12 87 14 218 2 114
2 207 1 207 0 0 -40 -69 -89 -152z m-80 -221 c4 4 4 0 0 -10 -8 -22 -11 -22
-25 6 -11 19 -10 20 3 10 8 -7 18 -10 22 -6z"/>
<path d="M1165 1660 c-5 -8 10 -50 18 -50 2 0 3 9 4 20 1 13 -2 18 -9 14 -7
-5 -9 -1 -5 9 7 18 2 23 -8 7z"/>
<path d="M1160 1439 c0 -194 0 -192 66 -229 l41 -22 67 38 c36 21 66 41 66 45
0 6 -107 195 -158 278 -10 17 -22 28 -26 24 -4 -4 -4 0 -1 9 4 9 2 19 -4 23
-6 3 -11 -1 -11 -9 0 -21 -10 -20 -26 2 -11 14 -13 -10 -14 -159z m60 96 c4 3
11 -2 14 -10 4 -13 2 -14 -14 -5 -11 6 -20 16 -19 23 0 9 2 9 6 -1 2 -6 8 -10
13 -7z"/>
<path d="M880 1269 c0 -5 5 -7 10 -4 6 3 10 8 10 11 0 2 -4 4 -10 4 -5 0 -10
-5 -10 -11z"/>
<path d="M868 1175 c2 -30 8 -55 13 -55 12 0 68 28 87 43 10 8 2 17 -35 38
-26 16 -52 29 -58 29 -6 0 -9 -23 -7 -55z"/>
<path d="M1044 1214 c-18 -14 -18 -15 4 -4 12 6 22 13 22 15 0 8 -5 6 -26 -11z"/>
<path d="M1160 1180 l0 -50 46 22 c49 25 48 29 -18 64 l-28 15 0 -51z"/>
<path d="M821 1179 c-19 -34 -21 -43 -10 -50 30 -19 39 -10 39 41 0 28 -1 50
-3 50 -2 0 -14 -19 -26 -41z"/>
<path d="M1002 1211 c-11 -7 -11 -9 2 -14 10 -4 16 -1 16 8 0 17 -1 17 -18 6z"/>
<path d="M1105 1210 c3 -5 8 -10 11 -10 2 0 4 5 4 10 0 6 -5 10 -11 10 -5 0
-7 -4 -4 -10z"/>
<path d="M1430 1173 c0 -41 12 -55 37 -46 10 4 10 10 1 26 -11 21 -11 21 -20
2 -7 -17 -8 -16 -4 5 3 14 1 32 -4 40 -7 11 -10 3 -10 -27z"/>
<path d="M1390 1146 c0 -14 5 -26 10 -26 6 0 10 9 10 19 0 11 -4 23 -10 26 -6
4 -10 -5 -10 -19z"/>
<path d="M946 1132 c-27 -15 -51 -32 -53 -38 -2 -6 19 -23 47 -38 l50 -27 55
31 c30 17 55 35 55 38 0 6 -93 62 -101 62 -2 0 -26 -13 -53 -28z"/>
<path d="M1081 1157 c2 -1 13 -9 24 -17 19 -14 19 -14 6 3 -7 9 -18 17 -24 17
-6 0 -8 -1 -6 -3z"/>
<path d="M1322 1124 c10 -10 20 -15 24 -12 3 4 -5 12 -18 18 -22 12 -22 12 -6
-6z"/>
<path d="M763 1080 c-12 -22 -20 -40 -18 -40 4 0 76 41 85 48 5 4 -29 32 -39
32 -3 0 -16 -18 -28 -40z"/>
<path d="M1473 1113 c-26 -9 -8 -44 19 -39 4 0 14 -8 22 -19 9 -11 16 -14 16
-7 0 6 -8 20 -19 31 -10 10 -20 23 -22 28 -2 6 -10 8 -16 6z"/>
<path d="M1355 1096 c-14 -10 -15 -15 -5 -21 9 -5 15 -4 18 3 2 7 8 10 13 6 5
-3 9 -1 9 5 0 17 -16 21 -35 7z"/>
<path d="M1180 1094 c0 -7 52 -25 57 -20 2 2 -10 8 -26 14 -17 6 -31 9 -31 6z"/>
<path d="M1303 1060 c2 -24 10 -25 27 -5 11 13 10 14 -5 9 -13 -5 -16 -4 -11
4 4 7 3 12 -3 12 -5 0 -9 -9 -8 -20z"/>
<path d="M778 1038 c-68 -38 -107 -95 -86 -127 9 -15 9 -23 -1 -35 -18 -21 -9
-20 31 3 18 11 53 30 78 44 45 25 45 25 48 86 2 34 -1 61 -5 61 -4 0 -34 -15
-65 -32z m-47 -62 c-9 -11 -9 -15 1 -19 7 -3 3 -4 -9 -4 -21 1 -21 2 -6 19 19
21 31 24 14 4z m36 -1 c0 -8 -4 -15 -9 -15 -10 0 -11 14 -1 23 9 10 10 9 10
-8z m-49 -47 c-2 -5 -8 -9 -13 -9 -5 0 -11 4 -13 9 -1 5 4 9 13 9 9 0 14 -4
13 -9z m22 -23 c-7 -8 -18 -15 -24 -15 -6 0 -2 7 8 15 25 19 32 19 16 0z"/>
<path d="M870 1016 l0 -55 45 26 c25 13 45 29 45 34 0 8 -71 49 -85 49 -3 0
-5 -24 -5 -54z"/>
<path d="M1158 1015 c2 -30 6 -55 9 -55 11 0 83 44 83 51 0 5 -85 59 -94 59 0
0 1 -25 2 -55z"/>
<path d="M1355 1044 c-22 -13 -34 -24 -27 -24 7 0 11 -3 8 -8 -2 -4 13 -17 35
-29 l39 -21 0 54 c0 30 -3 54 -7 53 -5 0 -26 -12 -48 -25z m20 -14 c3 -6 -4
-10 -17 -10 -18 0 -20 2 -8 10 19 12 18 12 25 0z"/>
<path d="M1434 1057 c-3 -8 -4 -36 -2 -63 l3 -48 114 -68 c62 -38 115 -68 116
-66 1 2 -23 46 -53 100 -51 88 -60 99 -114 127 -46 25 -59 29 -64 18z"/>
<path d="M1104 1046 c1 -8 5 -18 8 -22 4 -3 5 1 4 10 -1 8 -5 18 -8 22 -4 3
-5 -1 -4 -10z"/>
<path d="M1050 1025 c-14 -8 -20 -14 -14 -15 5 0 19 7 30 15 24 18 16 19 -16
0z"/>
<path d="M1218 971 c-27 -14 -47 -30 -45 -36 3 -10 214 -133 230 -134 4 -1 7
27 7 62 l0 62 -66 38 c-36 20 -69 36 -73 36 -3 -1 -27 -13 -53 -28z"/>
<path d="M960 975 c-8 -9 -9 -15 -2 -15 6 0 14 5 17 10 4 6 11 7 17 4 7 -4 8
-2 4 4 -10 16 -21 15 -36 -3z"/>
<path d="M903 942 c-32 -15 -33 -17 -33 -79 0 -35 2 -63 5 -63 13 0 135 73
135 81 0 5 -14 9 -31 9 -23 0 -30 4 -26 14 3 8 -1 17 -10 20 -9 4 -13 9 -10
13 4 3 13 0 21 -7 18 -14 39 -10 28 6 -13 20 -46 23 -79 6z"/>
<path d="M735 847 l-110 -62 109 -3 c60 -1 111 -1 113 1 2 3 3 32 1 66 l-3 60
-110 -62z"/>
<path d="M1107 891 c-4 -17 -3 -21 5 -13 5 5 8 16 6 23 -3 8 -7 3 -11 -10z"/>
<path d="M1160 845 l0 -65 117 0 c64 0 114 2 112 4 -7 7 -219 126 -224 126 -3
0 -5 -29 -5 -65z"/>
<path d="M1430 846 l0 -66 89 0 c84 0 116 9 90 26 -8 4 -9 3 -5 -4 5 -9 -6
-12 -38 -12 -34 0 -46 4 -46 15 0 11 8 13 33 8 29 -5 30 -4 17 10 -8 8 -32 25
-53 36 -21 12 -49 29 -63 37 l-24 16 0 -66z m120 -16 c8 -5 11 -10 5 -10 -5 0
-17 5 -25 10 -8 5 -10 10 -5 10 6 0 17 -5 25 -10z"/>
<path d="M642 867 c-6 -7 -7 -18 -3 -25 6 -10 11 -9 22 4 9 12 10 15 2 10 -7
-4 -13 -3 -13 3 0 5 6 12 13 14 7 4 8 6 1 6 -6 1 -16 -5 -22 -12z"/>
<path d="M1050 865 c-7 -8 -15 -13 -19 -11 -4 3 -38 -13 -76 -34 l-70 -40 100
2 c95 1 97 2 35 8 -53 5 -57 7 -22 8 23 1 42 7 42 13 0 7 -11 8 -30 4 -18 -4
-30 -3 -30 4 0 6 7 7 17 4 12 -5 14 -3 8 7 -6 9 -4 12 6 8 15 -6 66 28 57 37
-3 3 -11 -1 -18 -10z"/>
<path d="M826 695 c-3 -9 3 -20 14 -27 27 -17 26 -42 0 -35 -11 3 -18 1 -14
-4 8 -14 41 -11 47 5 3 8 -3 22 -14 32 -24 21 -24 31 -1 37 13 4 12 5 -4 6
-12 0 -24 -6 -28 -14z"/>
<path d="M893 665 c0 -27 2 -38 4 -22 2 15 2 37 0 50 -2 12 -4 0 -4 -28z"/>
<path d="M922 665 c1 -40 2 -43 5 -15 l5 35 28 -34 28 -35 4 43 c2 23 0 45 -4
47 -4 3 -8 -10 -8 -28 l0 -32 -30 34 -29 35 1 -50z"/>
<path d="M1021 696 c-7 -8 -11 -27 -9 -43 2 -23 8 -28 33 -30 28 -2 28 -1 5 5
-14 5 -26 16 -28 25 -5 23 17 49 35 43 7 -3 13 -1 13 4 0 15 -36 12 -49 -4z"/>
<path d="M1080 665 c0 -43 1 -45 28 -44 24 1 25 2 5 7 -23 7 -20 25 7 35 12 4
11 6 -2 6 -10 1 -18 7 -18 15 0 8 8 17 18 19 10 3 6 5 -10 6 -27 1 -28 -1 -28
-44z"/>
<path d="M1208 697 c6 -6 12 -28 15 -47 3 -30 4 -28 5 13 2 37 -1 47 -14 47
-12 0 -14 -3 -6 -13z"/>
<path d="M1267 704 c-13 -13 -7 -44 9 -51 9 -3 13 -12 10 -22 -4 -9 3 -5 14 8
26 30 23 65 -5 69 -12 2 -24 0 -28 -4z m39 -15 c10 -17 -13 -36 -27 -22 -12
12 -4 33 11 33 5 0 12 -5 16 -11z"/>
<path d="M1337 703 c-2 -5 -3 -24 -3 -43 1 -30 4 -35 26 -35 22 0 25 4 22 30
-1 17 -5 36 -7 43 -5 13 -31 17 -38 5z m33 -18 c0 -8 -4 -15 -9 -15 -13 0 -22
16 -14 24 11 11 23 6 23 -9z m0 -40 c0 -8 -4 -15 -9 -15 -13 0 -22 16 -14 24
11 11 23 6 23 -9z"/>
<path d="M1407 703 c-4 -3 -7 -11 -7 -17 0 -6 5 -5 12 2 33 33 39 -10 6 -45
l-21 -23 34 1 c19 1 26 3 17 6 -22 6 -22 12 -2 35 14 14 14 20 4 33 -13 16
-32 20 -43 8z"/>
<path d="M545 1730 c3 -5 8 -10 11 -10 2 0 4 5 4 10 0 6 -5 10 -11 10 -5 0 -7
-4 -4 -10z"/>
<path d="M510 1699 c0 -18 2 -19 15 -9 8 7 15 16 15 21 0 5 -7 9 -15 9 -9 0
-15 -9 -15 -21z"/>
<path d="M1680 1729 c-12 -9 -12 -10 4 -5 10 4 25 1 32 -5 11 -9 14 -8 14 5 0
18 -28 21 -50 5z"/>
<path d="M1815 1610 c3 -5 8 -10 11 -10 2 0 4 5 4 10 0 6 -5 10 -11 10 -5 0
-7 -4 -4 -10z"/>
<path d="M1830 1581 c-7 -13 -7 -22 0 -26 5 -3 10 1 10 11 0 13 3 14 15 4 19
-16 20 -3 0 16 -12 13 -15 12 -25 -5z"/>
<path d="M430 1575 c7 -9 15 -13 17 -11 7 7 -7 26 -19 26 -6 0 -6 -6 2 -15z"/>
<path d="M410 1550 c0 -5 5 -10 11 -10 5 0 7 5 4 10 -3 6 -8 10 -11 10 -2 0
-4 -4 -4 -10z"/>
<path d="M342 1429 c2 -6 8 -10 13 -10 5 0 11 4 13 10 2 6 -4 11 -13 11 -9 0
-15 -5 -13 -11z"/>
<path d="M332 1389 c2 -6 8 -10 13 -10 5 0 11 4 13 10 2 6 -4 11 -13 11 -9 0
-15 -5 -13 -11z"/>
<path d="M1895 1440 c3 -5 8 -10 11 -10 2 0 4 5 4 10 0 6 -5 10 -11 10 -5 0
-7 -4 -4 -10z"/>
<path d="M308 933 c7 -3 16 -2 19 1 4 3 -2 6 -13 5 -11 0 -14 -3 -6 -6z"/>
<path d="M350 800 c-8 -5 -12 -11 -9 -14 2 -3 11 -1 19 4 8 5 12 11 9 14 -2 3
-11 1 -19 -4z"/>
<path d="M370 740 c0 -5 4 -10 9 -10 6 0 13 5 16 10 3 6 -1 10 -9 10 -9 0 -16
-4 -16 -10z"/>
<path d="M1845 750 c-3 -5 -2 -10 4 -10 5 0 13 5 16 10 3 6 2 10 -4 10 -5 0
-13 -4 -16 -10z"/>
<path d="M1670 485 c7 -9 15 -13 17 -11 7 7 -7 26 -19 26 -6 0 -6 -6 2 -15z"/>
<path d="M490 570 c0 -5 4 -10 9 -10 6 0 13 5 16 10 3 6 -1 10 -9 10 -9 0 -16
-4 -16 -10z"/>
<path d="M627 453 c-4 -3 -7 -11 -7 -17 0 -6 5 -5 12 2 6 6 9 14 7 17 -3 3 -9
2 -12 -2z"/>
<path d="M675 420 c-3 -5 -2 -10 4 -10 5 0 13 5 16 10 3 6 2 10 -4 10 -5 0
-13 -4 -16 -10z"/>
<path d="M955 311 c-6 -11 9 -23 19 -14 9 9 7 23 -3 23 -6 0 -12 -4 -16 -9z"/>
<path d="M1110 320 c0 -5 5 -10 11 -10 5 0 7 5 4 10 -3 6 -8 10 -11 10 -2 0
-4 -4 -4 -10z"/>
</g>
</svg>
